<svg width="35" height="40" viewBox="0 0 35 40" fill="none" xmlns="http://www.w3.org/2000/svg">
<path fill-rule="evenodd" clip-rule="evenodd" d="M12.0619 35.1065C9.76878 35.1065 7.58113 34.6552 5.58297 33.8364V27.6461V18.1815C5.58297 14.6331 8.4597 11.7563 12.0082 11.7563C13.5171 11.7563 14.9044 12.2765 16.0008 13.1473V7.45943C14.7578 6.99622 13.4125 6.74306 12.0082 6.74306C5.02989 6.74306 0.540039 12.2527 0.540039 18.9406V36.7438C3.89059 38.8087 7.8371 40 12.0619 40C24.2081 40 34.0546 30.1534 34.0546 18.0072C34.0546 11.0707 30.8433 4.88436 25.8264 0.853394V7.86027C27.9222 10.6987 29.1611 14.2082 29.1611 18.0072C29.1611 27.4508 21.5055 35.1065 12.0619 35.1065Z" fill="#5C8EE6"/>
</svg>
