<svg width="34" height="40" viewBox="0 0 34 40" fill="none" xmlns="http://www.w3.org/2000/svg">
<path fill-rule="evenodd" clip-rule="evenodd" d="M21.9928 4.89351C24.2857 4.89351 26.4733 5.34481 28.4715 6.16361V12.3539V21.8184C28.4715 25.3669 25.5949 28.2436 22.0465 28.2436C20.5375 28.2436 19.15 27.7235 18.0536 26.8527V32.5405C19.2966 33.0038 20.6421 33.2569 22.0465 33.2569C29.0248 33.2569 33.5146 27.7473 33.5146 21.0594V3.25613C30.1638 1.19127 26.2173 0 21.9928 0C9.84658 0 0 9.84658 0 21.9928C0 28.9293 3.21131 35.1156 8.22825 39.1466V32.1397C6.13243 29.3013 4.89351 25.7918 4.89351 21.9928C4.89351 12.5492 12.5492 4.89351 21.9928 4.89351Z" fill="#292D33"/>
</svg>
